<svg width="40" height="40" viewBox="0 0 40 40" fill="none" xmlns="http://www.w3.org/2000/svg">
<path d="M1.77783 20C1.77783 30.0641 9.93592 38.2222 20.0001 38.2222C30.0642 38.2222 38.2223 30.0641 38.2223 20C38.2223 9.93586 30.0642 1.77777 20.0001 1.77777C9.93592 1.77777 1.77783 9.93586 1.77783 20Z" stroke="white" stroke-width="2.8" stroke-linecap="round" stroke-linejoin="round"/>
<path d="M21.6668 3.41666C21.6668 3.41666 26.6668 9.99999 26.6668 20C26.6668 30 21.6668 36.5833 21.6668 36.5833M18.3334 36.5833C18.3334 36.5833 13.3334 30 13.3334 20C13.3334 9.99999 18.3334 3.41666 18.3334 3.41666M4.38342 25.8333H35.6168M4.38342 14.1667H35.6168" stroke="white" stroke-width="2.8" stroke-linecap="round" stroke-linejoin="round"/>
</svg>
