<svg width="143" height="46" viewBox="0 0 143 46" fill="none" xmlns="http://www.w3.org/2000/svg">
<path d="M57.9141 32V11.375H63.3633C64.5039 11.375 65.4062 11.6289 66.0703 12.1367C66.7422 12.6445 67.2227 13.3672 67.5117 14.3047C67.8008 15.2422 67.9453 16.3594 67.9453 17.6562C67.9453 18.9062 67.8242 19.9961 67.582 20.9258C67.3398 21.8477 66.9062 22.5625 66.2812 23.0703C65.6641 23.5781 64.7852 23.832 63.6445 23.832H61.9688V32H57.9141ZM61.9688 20.1289H62.2031C62.9688 20.1289 63.4375 19.9141 63.6094 19.4844C63.7812 19.0547 63.8672 18.4219 63.8672 17.5859C63.8672 16.8047 63.7812 16.2031 63.6094 15.7812C63.4453 15.3516 63.0508 15.1367 62.4258 15.1367H61.9688V20.1289ZM70.3641 13.3438V9.85156H74.5594V13.3438H70.3641ZM70.3641 32V14.4219H74.5594V32H70.3641ZM76.9078 32V29.4336L81.2906 17.75H77.1187V14.4219H85.6383V17.2812L81.5016 28.8594H85.6734V32H76.9078ZM87.3656 32V29.4336L91.7484 17.75H87.5766V14.4219H96.0961V17.2812L91.9594 28.8594H96.1313V32H87.3656ZM101.538 32.1875C100.562 32.1875 99.8156 31.9609 99.3 31.5078C98.7922 31.0547 98.4445 30.4336 98.257 29.6445C98.0695 28.8555 97.9758 27.9609 97.9758 26.9609C97.9758 25.8906 98.0812 25.0156 98.2922 24.3359C98.5031 23.6484 98.8625 23.0859 99.3703 22.6484C99.8859 22.2109 100.593 21.8398 101.491 21.5352L104.093 20.6445V18.8398C104.093 17.8945 103.784 17.4219 103.167 17.4219C102.605 17.4219 102.323 17.8047 102.323 18.5703V19.625H98.2453C98.2375 19.5625 98.2336 19.4844 98.2336 19.3906C98.2336 19.2891 98.2336 19.1758 98.2336 19.0508C98.2336 17.3008 98.6437 16.0625 99.4641 15.3359C100.292 14.6016 101.601 14.2344 103.39 14.2344C104.327 14.2344 105.167 14.4023 105.909 14.7383C106.652 15.0664 107.237 15.5547 107.667 16.2031C108.105 16.8516 108.323 17.6523 108.323 18.6055V32H104.152V29.9141C103.948 30.6484 103.612 31.2109 103.144 31.6016C102.675 31.9922 102.14 32.1875 101.538 32.1875ZM103.191 28.9297C103.534 28.9297 103.769 28.7852 103.894 28.4961C104.019 28.207 104.081 27.8945 104.081 27.5586V22.6602C103.503 22.8945 103.054 23.1914 102.734 23.5508C102.413 23.9023 102.253 24.4219 102.253 25.1094V27.3711C102.253 28.4102 102.566 28.9297 103.191 28.9297ZM111.141 32V14.4219H115.336V16.6602C115.492 15.9883 115.781 15.418 116.203 14.9492C116.633 14.4727 117.227 14.2344 117.984 14.2344C119.203 14.2344 120.086 14.6094 120.633 15.3594C121.188 16.1094 121.465 17.1367 121.465 18.4414V32H117.328V18.875C117.328 18.5312 117.258 18.2148 117.117 17.9258C116.977 17.6289 116.734 17.4805 116.391 17.4805C116.07 17.4805 115.832 17.5938 115.676 17.8203C115.527 18.0391 115.434 18.3164 115.395 18.6523C115.355 18.9805 115.336 19.3086 115.336 19.6367V32H111.141ZM124.294 13.3438V9.85156H128.489V13.3438H124.294ZM124.294 32V14.4219H128.489V32H124.294ZM136.463 32.1875C132.963 32.1875 131.213 30.3711 131.213 26.7383V19.6836C131.213 18.0273 131.677 16.707 132.607 15.7227C133.537 14.7305 134.822 14.2344 136.463 14.2344C138.111 14.2344 139.4 14.7305 140.33 15.7227C141.259 16.707 141.724 18.0273 141.724 19.6836V26.7383C141.724 30.3711 139.97 32.1875 136.463 32.1875ZM136.463 28.9531C136.814 28.9531 137.064 28.8281 137.213 28.5781C137.369 28.3203 137.447 27.9961 137.447 27.6055V19.0156C137.447 17.9922 137.119 17.4805 136.463 17.4805C135.806 17.4805 135.478 17.9922 135.478 19.0156V27.6055C135.478 27.9961 135.552 28.3203 135.701 28.5781C135.857 28.8281 136.111 28.9531 136.463 28.9531Z" fill="white"/>
<path d="M38.8672 38.8672C35.683 42.0513 31.6262 44.2197 27.2096 45.0982C22.7931 45.9767 18.2153 45.5258 14.055 43.8026C9.89469 42.0794 6.33884 39.1611 3.83708 35.417C1.33531 31.6728 2.77338e-07 27.2709 0 22.7679C-2.77338e-07 18.2648 1.33531 13.8629 3.83707 10.1187C6.33884 6.37456 9.89469 3.45635 14.055 1.7331C18.2152 0.00985524 22.7931 -0.441025 27.2096 0.437477C31.6262 1.31598 35.683 3.48441 38.8672 6.66855L22.7679 22.7679L38.8672 38.8672Z" fill="white"/>
<path opacity="0.3" d="M41.435 9.56497C43.1993 11.3293 44.5989 13.4238 45.5537 15.729C46.5086 18.0342 47 20.5049 47 23C47 25.4951 46.5086 27.9658 45.5537 30.271C44.5989 32.5762 43.1993 34.6707 41.435 36.435L28 23L41.435 9.56497Z" fill="white"/>
<circle cx="17.4107" cy="9.375" r="3.125" fill="#B83922"/>
<circle cx="39.3393" cy="16.3393" r="1.33929" fill="#B83922"/>
<circle cx="41" cy="30" r="1" fill="#B83922"/>
<circle cx="0.5" cy="0.5" r="0.5" transform="matrix(1 0 0 -1 43 22)" fill="#B83922"/>
<circle cx="36.5" cy="23.5" r="1.5" fill="#B83922"/>
</svg>
