<svg width="85" height="24" viewBox="0 0 85 24" fill="none" xmlns="http://www.w3.org/2000/svg">
<path d="M0.914062 23V2.375H6.36328C7.50391 2.375 8.40625 2.62891 9.07031 3.13672C9.74219 3.64453 10.2227 4.36719 10.5117 5.30469C10.8008 6.24219 10.9453 7.35938 10.9453 8.65625C10.9453 9.90625 10.8242 10.9961 10.582 11.9258C10.3398 12.8477 9.90625 13.5625 9.28125 14.0703C8.66406 14.5781 7.78516 14.832 6.64453 14.832H4.96875V23H0.914062ZM4.96875 11.1289H5.20312C5.96875 11.1289 6.4375 10.9141 6.60938 10.4844C6.78125 10.0547 6.86719 9.42188 6.86719 8.58594C6.86719 7.80469 6.78125 7.20312 6.60938 6.78125C6.44531 6.35156 6.05078 6.13672 5.42578 6.13672H4.96875V11.1289ZM13.3641 4.34375V0.851562H17.5594V4.34375H13.3641ZM13.3641 23V5.42188H17.5594V23H13.3641ZM19.9078 23V20.4336L24.2906 8.75H20.1187V5.42188H28.6383V8.28125L24.5016 19.8594H28.6734V23H19.9078ZM30.3656 23V20.4336L34.7484 8.75H30.5766V5.42188H39.0961V8.28125L34.9594 19.8594H39.1313V23H30.3656ZM44.5383 23.1875C43.5617 23.1875 42.8156 22.9609 42.3 22.5078C41.7922 22.0547 41.4445 21.4336 41.257 20.6445C41.0695 19.8555 40.9758 18.9609 40.9758 17.9609C40.9758 16.8906 41.0812 16.0156 41.2922 15.3359C41.5031 14.6484 41.8625 14.0859 42.3703 13.6484C42.8859 13.2109 43.593 12.8398 44.4914 12.5352L47.093 11.6445V9.83984C47.093 8.89453 46.7844 8.42188 46.1672 8.42188C45.6047 8.42188 45.3234 8.80469 45.3234 9.57031V10.625H41.2453C41.2375 10.5625 41.2336 10.4844 41.2336 10.3906C41.2336 10.2891 41.2336 10.1758 41.2336 10.0508C41.2336 8.30078 41.6437 7.0625 42.4641 6.33594C43.2922 5.60156 44.6008 5.23438 46.3898 5.23438C47.3273 5.23438 48.1672 5.40234 48.9094 5.73828C49.6516 6.06641 50.2375 6.55469 50.6672 7.20312C51.1047 7.85156 51.3234 8.65234 51.3234 9.60547V23H47.1516V20.9141C46.9484 21.6484 46.6125 22.2109 46.1437 22.6016C45.675 22.9922 45.1398 23.1875 44.5383 23.1875ZM46.1906 19.9297C46.5344 19.9297 46.7687 19.7852 46.8937 19.4961C47.0187 19.207 47.0812 18.8945 47.0812 18.5586V13.6602C46.5031 13.8945 46.0539 14.1914 45.7336 14.5508C45.4133 14.9023 45.2531 15.4219 45.2531 16.1094V18.3711C45.2531 19.4102 45.5656 19.9297 46.1906 19.9297ZM54.1406 23V5.42188H58.3359V7.66016C58.4922 6.98828 58.7812 6.41797 59.2031 5.94922C59.6328 5.47266 60.2266 5.23438 60.9844 5.23438C62.2031 5.23438 63.0859 5.60938 63.6328 6.35938C64.1875 7.10938 64.4648 8.13672 64.4648 9.44141V23H60.3281V9.875C60.3281 9.53125 60.2578 9.21484 60.1172 8.92578C59.9766 8.62891 59.7344 8.48047 59.3906 8.48047C59.0703 8.48047 58.832 8.59375 58.6758 8.82031C58.5273 9.03906 58.4336 9.31641 58.3945 9.65234C58.3555 9.98047 58.3359 10.3086 58.3359 10.6367V23H54.1406ZM67.2937 4.34375V0.851562H71.4891V4.34375H67.2937ZM67.2937 23V5.42188H71.4891V23H67.2937ZM79.4625 23.1875C75.9625 23.1875 74.2125 21.3711 74.2125 17.7383V10.6836C74.2125 9.02734 74.6773 7.70703 75.607 6.72266C76.5367 5.73047 77.8219 5.23438 79.4625 5.23438C81.1109 5.23438 82.4 5.73047 83.3297 6.72266C84.2594 7.70703 84.7242 9.02734 84.7242 10.6836V17.7383C84.7242 21.3711 82.9703 23.1875 79.4625 23.1875ZM79.4625 19.9531C79.8141 19.9531 80.0641 19.8281 80.2125 19.5781C80.3688 19.3203 80.4469 18.9961 80.4469 18.6055V10.0156C80.4469 8.99219 80.1188 8.48047 79.4625 8.48047C78.8063 8.48047 78.4781 8.99219 78.4781 10.0156V18.6055C78.4781 18.9961 78.5523 19.3203 78.7008 19.5781C78.857 19.8281 79.1109 19.9531 79.4625 19.9531Z" fill="white"/>
</svg>
