<svg width="31" height="31" viewBox="0 0 31 31" fill="none" xmlns="http://www.w3.org/2000/svg">
<path d="M25.6358 26.3865C23.5356 28.4867 20.8598 29.9169 17.9468 30.4964C15.0338 31.0758 12.0143 30.7784 9.2703 29.6418C6.52629 28.5052 4.18094 26.5804 2.53084 24.1109C0.880737 21.6413 1.82925e-07 18.7379 0 15.7678C-1.82925e-07 12.7977 0.880737 9.89432 2.53084 7.42478C4.18093 4.95523 6.52628 3.03045 9.2703 1.89384C12.0143 0.757233 15.0337 0.459844 17.9468 1.03928C20.8598 1.61872 23.5356 3.04896 25.6358 5.14914L15.0171 15.7678L25.6358 26.3865Z" fill="white"/>
<path opacity="0.3" d="M27.3298 7.05958C28.4935 8.22328 29.4166 9.60478 30.0464 11.1252C30.6762 12.6457 31.0004 14.2753 31.0004 15.921C31.0004 17.5667 30.6762 19.1963 30.0464 20.7167C29.4166 22.2372 28.4935 23.6187 27.3298 24.7824L18.4684 15.921L27.3298 7.05958Z" fill="white"/>
<circle cx="11.483" cy="6.93425" r="2.06117" fill="#B83922"/>
<circle cx="25.9468" cy="11.5277" r="0.883358" fill="#B83922"/>
<circle cx="27.0424" cy="20.538" r="0.659574" fill="#B83922"/>
<circle cx="0.329787" cy="0.329787" r="0.329787" transform="matrix(1 0 0 -1 28.3613 15.2614)" fill="#B83922"/>
<circle cx="24.0743" cy="16.2507" r="0.989362" fill="#B83922"/>
</svg>
